<svg width="272" height="236" fill="none" xmlns="http://www.w3.org/2000/svg">
    <path fill-rule="evenodd" clip-rule="evenodd" d="M132.38 219.77c-57.89 0-104.81-46.98-104.81-104.93 0-57.94 46.92-93.3 104.8-93.3 57.9 0 104.82 35.36 104.82 93.3 0 57.95-46.93 104.93-104.81 104.93z" fill="#E3EAF9"/>
    <path fill-rule="evenodd" clip-rule="evenodd" d="M255.93 90.39c2.26-10.31 4-22.28 1.14-32.66-9.15-33.34-60.22-53.8-101.05-38.95C118.6 32.39 124.4 72.96 98.11 65 32.83 45.25 1 87.22 1 134.1c0 25.43 23.55 62.55 68.95 59.26a65.98 65.98 0 0137.8 8.86c19.32 11.19 50.03 13.8 81.92 5.03 47.98-13.2 82.73-29.2 80.24-60.54-2.49-31.35-21.21-23.4-13.98-56.32z" fill="#F4F7FF"/>
    <path fill-rule="evenodd" clip-rule="evenodd" d="M205.9 16.66c.07-1.02 1.84-3.11 1.57-3.37-.2-.2-.88.45-1.26.83a.16.16 0 01-.16.04.16.16 0 01-.1-.14c-.09-1-.34-3.82-.62-3.85-.29-.03-.43 1.76-.47 2.35a.04.04 0 01-.03.04.04.04 0 01-.04-.03c-.22-.63-.96-2.67-1.28-2.41-.3.25.17 2.2.36 2.96a.04.04 0 01-.02.04.04.04 0 01-.05-.01c-.38-.68-1.38-2.39-1.66-2.17-.27.22.5 2.08.8 2.74a.04.04 0 01-.02.04.04.04 0 01-.05 0c-.43-.5-1.57-1.75-1.57-1.38.01.46 2.01 4.25 2.67 4.88.66.64 1.94-.56 1.94-.56" fill="#F5E1DE"/>
    <path fill-rule="evenodd" clip-rule="evenodd" d="M223.89 29.35c-1.36 3.01-3.31 6.43-5.68 8.78-4.6 4.55-10.49 3.36-12.55-7.29-.36-1.6-.6-3.2-.82-4.8-.42-3.18-.59-6.36-.74-9.52a.87.87 0 011.72-.22v.02c.63 3.08 1.25 6.14 2.06 9.13.41 1.48.84 2.96 1.34 4.38.43 1.35 2.17 5.53 3.52 5.94.04 0 .08.05.11.02.03-.02.04-.02.05 0 .03-.04.05-.06.07-.05.07-.06.16-.07.32-.2.3-.2.7-.58 1.08-1.05a18.1 18.1 0 002.15-3.44 55.67 55.67 0 001.76-3.72c1.38-3.76 7.06-1.96 5.7 1.81a3.09 3.09 0 01-.1.2" fill="#F5E1DE"/>
    <path fill-rule="evenodd" clip-rule="evenodd" d="M214.77 33.4l.01-.02a37.03 37.03 0 001.94-3.17 35.46 35.46 0 001.6-3.25l.02-.05a3.03 3.03 0 014.21-1.5 3.04 3.04 0 011.27 4.1 37.77 37.77 0 01-2.25 3.72 43.7 43.7 0 01-1.73 2.3c-.44-.47-4-1.74-5.07-2.13" fill="#E3EAF9"/>
    <path fill-rule="evenodd" clip-rule="evenodd" d="M217.74 54.48c2.64 3.03 17.86 4.3 17.86 4.3 1.13-1.31-.52-7.25-.91-13.27-.43-6.51-.68-13.7-.8-17.58a2.96 2.96 0 00-2.95-2.88h-9.66a2.86 2.86 0 00-2.85 2.62l-1.13 13.66c-.45 5.32-1.84 10.53.44 13.15" fill="#F9EBEB"/>
    <path fill-rule="evenodd" clip-rule="evenodd" d="M226.52 105.11l-.02 6 .52 2.92a.84.84 0 01-.8.99c-2.45.07-8.72.24-8.9-.04-.78-1.27 2.79-1.76 5.4-2.78 2.6-1 .8-10.93.8-10.93l3 3.84" fill="#F5E1DE"/>
    <path fill-rule="evenodd" clip-rule="evenodd" d="M222.72 112.2l.04-.02a5.96 5.96 0 002.1.37 6.15 6.15 0 001.85-.27l.31 1.75a.84.84 0 01-.8.98c-2.45.08-8.73.25-8.9-.03-.78-1.27 2.79-1.77 5.4-2.78" fill="#ACB7D2"/>
    <path fill-rule="evenodd" clip-rule="evenodd" d="M226.99 81.85c.32 2.3.37 16.99-.15 24.45h-2.94c-1.58-7.24-3.27-21.28-3.59-23.52v-.08c-1.76-7.8-2.64-22.96-2.57-26.04.1-4.16 2.8-7.48 6.03-7.4 3.23.07 5.78 3.5 5.68 7.67-.06 2.62-2.62 23.83-2.46 24.92" fill="#C2CBE2"/>
    <path fill-rule="evenodd" clip-rule="evenodd" d="M226.5 93.5a15.53 15.53 0 00-.5-4.63c-1.15-4.4-1.18-9-.72-13.54.04-.38.07-.76.09-1.15.26-5.94-2.92-11.33-7.57-14.73a50.81 50.81 0 01-.06-2.79c.1-4.16 2.8-7.48 6.03-7.4 3.23.07 5.78 3.5 5.68 7.67-.06 2.62-2.62 23.83-2.47 24.92.33 2.3.38 16.99-.14 24.45h-2.94a92.61 92.61 0 01-.56-2.8 20.14 20.14 0 003.16-10" fill="#ACB7D2"/>
    <path fill-rule="evenodd" clip-rule="evenodd" d="M233.59 105.11l-.03 6 .52 2.92a.84.84 0 01-.8.99c-2.44.07-8.72.24-8.89-.04-.79-1.27 2.78-1.76 5.39-2.78 2.61-1 .8-10.93.8-10.93l3 3.84" fill="#F5E1DE"/>
    <path fill-rule="evenodd" clip-rule="evenodd" d="M229.78 112.2l.04-.02a5.96 5.96 0 002.11.37 6.14 6.14 0 001.84-.27l.31 1.75a.84.84 0 01-.8.98c-2.44.08-8.72.25-8.89-.03-.79-1.27 2.78-1.77 5.39-2.78" fill="#ACB7D2"/>
    <path fill-rule="evenodd" clip-rule="evenodd" d="M234.05 81.85c.32 2.3.37 16.99-.14 24.45h-2.95c-1.58-7.24-3.27-21.28-3.58-23.52l-.01-.08c-1.76-7.8-3.33-23.06-3.26-26.13.1-4.17 3.49-7.4 6.72-7.32 3.24.08 5.08 3.42 4.99 7.58-.06 2.62-1.92 23.93-1.77 25.02" fill="#D3DBEF"/>
    <path fill-rule="evenodd" clip-rule="evenodd" d="M221.19 25.05h1.57a3.62 3.62 0 003.5 2.25c1.79 0 2.95-.98 3.5-2.25h1.42a2.7 2.7 0 012.71 2.63c.11 3.82.36 11.18.8 17.83.4 6.03 2.03 11.62.91 13.26 0 0-15.22-1.26-17.86-4.3-2.28-2.6-.89-7.82-.44-13.13l1.13-13.75a2.76 2.76 0 012.76-2.54" fill="#D3DBEF"/>
    <path fill-rule="evenodd" clip-rule="evenodd" d="M232.18 33.73a16.2 16.2 0 00-2.13-8.68h1.13a2.7 2.7 0 012.71 2.63c.11 3.82.36 11.18.8 17.83.4 6.03 2.03 11.62.91 13.26 0 0-15.22-1.26-17.86-4.3a5.15 5.15 0 01-1.12-2.55c8.85-1.4 15.15-9.16 15.56-18.2" fill="#C2CBE2"/>
    <path fill-rule="evenodd" clip-rule="evenodd" d="M226.67 21.53l.18.04a2.56 2.56 0 003.05-1.94l.82-3.7-2.68-.6-1.37 6.2" fill="#ACB7D2"/>
    <path fill-rule="evenodd" clip-rule="evenodd" d="M224.28 25.05h5.05l-1.46-5.04-3.44.43-.15 4.61" fill="#F9EBEB"/>
    <path fill-rule="evenodd" clip-rule="evenodd" d="M224.43 20.44l3.44-.43.68 2.35c-.77.87-1.91 2.22-3.17 2.22a2 2 0 01-1.08-.32l.13-3.82" fill="#E9D1CE"/>
    <path fill-rule="evenodd" clip-rule="evenodd" d="M223.9 23.12a4.2 4.2 0 005.03-3.2l1.01-4.58-7.04-1.57s-.8 3.58-.82 6.1c-.01 1.9.67 2.99 1.83 3.25" fill="#F9EBEB"/>
    <path fill-rule="evenodd" clip-rule="evenodd" d="M227.93 18.79c-.2.9.06 1.71.59 1.83.53.12 1.37-.93 1.57-1.82.2-.9-.32-1.3-.85-1.42-.53-.12-1.12.51-1.32 1.4" fill="#F9EBEB"/>
    <path fill-rule="evenodd" clip-rule="evenodd" d="M222.28 13.77c.57-1.4 2.13-2 3.56-1.5l.46.13 2.38.52a2.65 2.65 0 012 3.17l-.11.55-.95.82h-.46l-.58 1-.1-.02a.88.88 0 01-.67-.99c.12-.75-.25-1.48-.99-1.64l-2.1-.47c-1.3-.29-2.11.26-2.33 1.22l-.11.83-.29-1.84a4.08 4.08 0 01.3-1.78z" fill="#ACB7D2"/>
    <path fill-rule="evenodd" clip-rule="evenodd" d="M229.1 13.88c.17 1.3-4.52 2.96-5.76 3.11a2.33 2.33 0 01-2.53-2.09 2.32 2.32 0 011.95-2.64c1.23-.15 6.19.31 6.35 1.62" fill="#ACB7D2"/>
    <path d="M227.93 43.86l.75-.14-.75.14zm35.06 190l-.75.14.75-.14zm.88.6l-.14-.74.14.75zm.6-.87l-.74.13.74-.13zm-35.05-190l.75-.14-.75.14zm-30.39.27l.75-.14-.75.14zm35.06 190l-.75.14.75-.14zm.88.6l-.14-.74.14.75zm.6-.87l-.74.13.74-.13zm-35.05-190l.75-.14-.75.14zm26.67.4a1.51 1.51 0 011.21-1.76l.28 1.5-1.5.27zm35.05 190L227.2 44l1.49-.27 35.05 190-1.49.28zm1.77 1.22a1.51 1.51 0 01-1.77-1.21l1.5-.28.27 1.5zm1.21-1.76a1.51 1.51 0 01-1.21 1.76l-.28-1.49 1.49-.27zm-35.05-190l35.05 190-1.49.27-35.05-190 1.49-.27zm-1.77-1.22a1.51 1.51 0 011.77 1.22l-1.5.27-.27-1.49zM198.3 44a1.51 1.51 0 011.21-1.77l.28 1.5-1.5.27zm35.05 190L198.29 44l1.49-.28 35.05 190-1.49.28zm1.76 1.21a1.51 1.51 0 01-1.76-1.21l1.49-.28.27 1.5zm1.22-1.76a1.51 1.51 0 01-1.22 1.76l-.27-1.49 1.49-.27zm-35.05-190l35.05 190-1.5.27-35.04-190 1.49-.27zm-1.77-1.22a1.51 1.51 0 011.77 1.22l-1.5.27-.27-1.49zm30.75 8.42c.83 0 1.51.68 1.51 1.52h-1.51v-1.52zm-28.17 0h28.17v1.52h-28.17v-1.52zm-1.51 1.52c0-.84.67-1.52 1.5-1.52v1.52h-1.5zm1.5 1.51a1.51 1.51 0 01-1.5-1.51h1.5v1.51zm28.18 0h-28.17v-1.51h28.17v1.51zm1.51-1.51c0 .83-.68 1.51-1.51 1.51v-1.51h1.51zm.84 11.17c.84 0 1.51.68 1.51 1.51h-1.51v-1.51zm-28.64 0h28.64v1.51h-28.64v-1.51zm-1.52 1.51c0-.83.68-1.51 1.52-1.51v1.51h-1.52zm1.52 1.52a1.51 1.51 0 01-1.52-1.52h1.52v1.52zm28.64 0h-28.64v-1.52h28.64v1.52zm1.51-1.52c0 .84-.67 1.52-1.51 1.52v-1.52h1.51zm.85 11.17c.83 0 1.5.68 1.5 1.52h-1.5v-1.52zm-28.4 0h28.4v1.52h-28.4v-1.52zm-1.5 1.52c0-.84.67-1.52 1.5-1.52v1.52h-1.5zm1.5 1.51a1.51 1.51 0 01-1.5-1.51h1.5v1.51zm28.4 0h-28.4v-1.51h28.4v1.51zm1.5-1.51c0 .83-.67 1.51-1.5 1.51v-1.51h1.5zm.85 11.17c.84 0 1.52.67 1.52 1.51h-1.52v-1.51zm-28.22 0h28.22v1.51H209.1v-1.51zm-1.51 1.51c0-.84.68-1.51 1.51-1.51v1.51h-1.51zm1.51 1.51a1.51 1.51 0 01-1.51-1.51h1.51v1.51zm28.22 0H209.1v-1.51h28.22v1.51zm1.52-1.51c0 .84-.68 1.51-1.52 1.51v-1.51h1.52zm.84 11.17c.83 0 1.51.68 1.51 1.51h-1.51v-1.51zm-28.55 0h28.55v1.51h-28.55v-1.51zm-1.51 1.51c0-.83.67-1.51 1.51-1.51v1.51h-1.51zm1.51 1.52a1.51 1.51 0 01-1.51-1.52h1.51v1.52zm28.55 0h-28.55v-1.52h28.55v1.52zm1.51-1.52c0 .84-.68 1.52-1.51 1.52v-1.52h1.51zm.8 10.95c.84 0 1.51.68 1.51 1.51h-1.51v-1.51zm-28.94 0h28.94v1.51h-28.94v-1.51zm-1.52 1.51c0-.83.68-1.51 1.52-1.51v1.51h-1.52zm1.52 1.52a1.51 1.51 0 01-1.52-1.52h1.52v1.52zm28.94 0h-28.94v-1.52h28.94v1.52zm1.51-1.52c0 .84-.67 1.52-1.51 1.52v-1.52h1.51zm.89 11.4c.83 0 1.51.68 1.51 1.51h-1.51v-1.51zm-28.5 0h28.5v1.51h-28.5v-1.51zm-1.52 1.51c0-.83.68-1.51 1.52-1.51v1.51h-1.52zm1.52 1.52a1.51 1.51 0 01-1.52-1.52h1.52v1.52zm28.5 0h-28.5v-1.52h28.5v1.52zm1.51-1.52c0 .84-.68 1.52-1.51 1.52v-1.52h1.51zm.52 11.17c.83 0 1.51.68 1.51 1.52h-1.51v-1.52zm-28.58 0h28.58v1.52h-28.58v-1.52zm-1.51 1.52c0-.84.67-1.52 1.51-1.52v1.52h-1.51zm1.51 1.51a1.51 1.51 0 01-1.51-1.51h1.51v1.51zm28.58 0h-28.58v-1.51h28.58v1.51zm1.51-1.51c0 .83-.68 1.51-1.51 1.51v-1.51h1.51zm.69 12.71c.83 0 1.51.68 1.51 1.52h-1.51v-1.52zm-28.58 0h28.58v1.52h-28.58v-1.52zm-1.51 1.52c0-.84.67-1.52 1.5-1.52v1.52h-1.5zm1.5 1.51a1.51 1.51 0 01-1.5-1.51h1.5v1.51zm28.59 0h-28.58v-1.51h28.58v1.51zm1.51-1.51c0 .83-.68 1.51-1.51 1.51v-1.51h1.51zm1.81 12.71c.84 0 1.51.68 1.51 1.51h-1.51v-1.51zm-28.58 0h28.58v1.51h-28.58v-1.51zm-1.51 1.51c0-.83.68-1.51 1.51-1.51v1.51h-1.51zm1.51 1.52a1.51 1.51 0 01-1.51-1.52h1.51v1.52zm28.58 0h-28.58v-1.52h28.58v1.52zm1.51-1.52c0 .84-.67 1.52-1.51 1.52v-1.52h1.51zm.97 12.72c.84 0 1.52.68 1.52 1.51h-1.52v-1.51zm-28.57 0h28.57v1.51h-28.57v-1.51zm-1.52 1.51c0-.83.68-1.51 1.52-1.51v1.51h-1.52zm1.52 1.52a1.51 1.51 0 01-1.52-1.52h1.52v1.52zm28.57 0h-28.57v-1.52h28.57v1.52zm1.52-1.52c0 .84-.68 1.52-1.52 1.52v-1.52h1.52zm.82 12.72c.84 0 1.52.68 1.52 1.51h-1.52v-1.51zm-28.57 0h28.57v1.51h-28.57v-1.51zm-1.52 1.51c0-.83.68-1.51 1.52-1.51v1.51h-1.52zm1.52 1.52a1.51 1.51 0 01-1.52-1.52h1.52v1.52zm28.57 0h-28.57v-1.52h28.57v1.52zm1.52-1.52c0 .84-.68 1.52-1.52 1.52v-1.52h1.52zm1.53 12.85c.83 0 1.5.68 1.5 1.52h-1.5v-1.52zm-28.58 0h28.58v1.52h-28.58v-1.52zm-1.52 1.52c0-.84.68-1.52 1.52-1.52v1.52h-1.52zm1.52 1.51a1.51 1.51 0 01-1.52-1.51h1.52v1.51zm28.58 0h-28.58v-1.51h28.58v1.51zm1.5-1.51c0 .83-.67 1.51-1.5 1.51v-1.51h1.5z" fill="#D3DBEF"/>
    <path d="M200.57 43.86l-.74-.14.74.14zm-35.05 190l.74.14-.74-.14zm-.88.6l.14-.74-.14.75zm-.6-.87l.74.13-.75-.13zm35.05-190l-.75-.14.74.14zm30.39.27l-.75-.14.75.14zm-35.06 190l.75.14-.75-.14zm-.88.6l.14-.74-.14.75zm-.6-.87l.74.13-.75-.13zm35.05-190l-.75-.14.75.14zm-26.67.4a1.51 1.51 0 00-1.22-1.76l-.27 1.5 1.49.27zm-35.05 190l35.05-190-1.5-.27-35.04 190 1.49.28zm-1.77 1.22a1.51 1.51 0 001.77-1.21l-1.5-.28-.27 1.5zm-1.21-1.76a1.51 1.51 0 001.21 1.76l.28-1.49-1.5-.27zm35.05-190l-35.05 190 1.49.27 35.05-190-1.49-.27zm1.76-1.22a1.51 1.51 0 00-1.76 1.22l1.49.27.27-1.49zM230.22 44a1.51 1.51 0 00-1.21-1.77l-.28 1.5 1.49.27zm-35.05 190l35.05-190-1.49-.28-35.05 190 1.49.28zm-1.77 1.21a1.51 1.51 0 001.77-1.21l-1.5-.28-.27 1.5zm-1.21-1.76a1.51 1.51 0 001.21 1.76l.28-1.49-1.5-.27zm35.05-190l-35.05 190 1.49.27 35.05-190-1.49-.27zm1.77-1.22a1.51 1.51 0 00-1.77 1.22l1.5.27.27-1.49zm-30.75 8.42c-.83 0-1.51.68-1.51 1.52h1.51v-1.52zm28.17 0h-28.17v1.52h28.17v-1.52zm1.51 1.52c0-.84-.68-1.52-1.51-1.52v1.52h1.51zm-1.51 1.51c.83 0 1.51-.68 1.51-1.51h-1.51v1.51zm-28.17 0h28.17v-1.51h-28.17v1.51zm-1.51-1.51c0 .83.68 1.51 1.51 1.51v-1.51h-1.51zm-.84 11.17c-.84 0-1.52.68-1.52 1.51h1.52v-1.51zm28.64 0h-28.64v1.51h28.64v-1.51zm1.52 1.51c0-.83-.68-1.51-1.52-1.51v1.51h1.52zm-1.52 1.52c.84 0 1.52-.68 1.52-1.52h-1.52v1.52zm-28.64 0h28.64v-1.52h-28.64v1.52zm-1.52-1.52c0 .84.68 1.52 1.52 1.52v-1.52h-1.52zm-.84 11.17c-.84 0-1.51.68-1.51 1.52h1.51v-1.52zm28.39 0h-28.39v1.52h28.39v-1.52zm1.51 1.52c0-.84-.67-1.52-1.51-1.52v1.52h1.51zm-1.51 1.51c.84 0 1.51-.68 1.51-1.51h-1.51v1.51zm-28.39 0h28.39v-1.51h-28.39v1.51zm-1.51-1.51c0 .83.67 1.51 1.51 1.51v-1.51h-1.51zm-.84 11.17c-.84 0-1.52.67-1.52 1.51h1.52v-1.51zm28.21 0H191.2v1.51h28.21v-1.51zm1.52 1.51c0-.84-.68-1.51-1.52-1.51v1.51h1.52zm-1.52 1.51c.84 0 1.52-.67 1.52-1.51h-1.52v1.51zm-28.21 0h28.21v-1.51H191.2v1.51zm-1.52-1.51c0 .84.68 1.51 1.52 1.51v-1.51h-1.52zm-.84 11.17c-.84 0-1.51.68-1.51 1.51h1.51v-1.51zm28.55 0h-28.55v1.51h28.55v-1.51zm1.51 1.51c0-.83-.68-1.51-1.51-1.51v1.51h1.51zm-1.51 1.52c.83 0 1.51-.68 1.51-1.52h-1.51v1.52zm-28.55 0h28.55v-1.52h-28.55v1.52zm-1.51-1.52c0 .84.67 1.52 1.51 1.52v-1.52h-1.51zm-.8 10.95c-.84 0-1.52.68-1.52 1.51h1.52v-1.51zm28.94 0h-28.94v1.51h28.94v-1.51zm1.51 1.51c0-.83-.67-1.51-1.51-1.51v1.51h1.51zm-1.51 1.52c.84 0 1.51-.68 1.51-1.52h-1.51v1.52zm-28.94 0h28.94v-1.52h-28.94v1.52zm-1.52-1.52c0 .84.68 1.52 1.52 1.52v-1.52H185zm-.88 11.4c-.84 0-1.51.68-1.51 1.51h1.51v-1.51zm28.5 0h-28.5v1.51h28.5v-1.51zm1.51 1.51c0-.83-.67-1.51-1.51-1.51v1.51h1.51zm-1.51 1.52c.84 0 1.51-.68 1.51-1.52h-1.51v1.52zm-28.5 0h28.5v-1.52h-28.5v1.52zm-1.51-1.52c0 .84.67 1.52 1.51 1.52v-1.52h-1.51zm-.52 11.17c-.84 0-1.51.68-1.51 1.52h1.51v-1.52zm28.58 0H182.1v1.52h28.58v-1.52zm1.51 1.52c0-.84-.68-1.52-1.51-1.52v1.52h1.51zm-1.51 1.51c.83 0 1.51-.68 1.51-1.51h-1.51v1.51zm-28.58 0h28.58v-1.51H182.1v1.51zm-1.51-1.51c0 .83.67 1.51 1.51 1.51v-1.51h-1.51zm-.69 12.71c-.84 0-1.51.68-1.51 1.52h1.51v-1.52zm28.58 0H179.9v1.52h28.58v-1.52zm1.51 1.52c0-.84-.68-1.52-1.51-1.52v1.52h1.51zm-1.51 1.51c.83 0 1.51-.68 1.51-1.51h-1.51v1.51zm-28.58 0h28.58v-1.51H179.9v1.51zm-1.51-1.51c0 .83.67 1.51 1.51 1.51v-1.51h-1.51zm-1.81 12.71c-.84 0-1.52.68-1.52 1.51h1.52v-1.51zm28.57 0h-28.57v1.51h28.57v-1.51zm1.52 1.51c0-.83-.68-1.51-1.52-1.51v1.51h1.52zm-1.52 1.52c.84 0 1.52-.68 1.52-1.52h-1.52v1.52zm-28.57 0h28.57v-1.52h-28.57v1.52zm-1.52-1.52c0 .84.68 1.52 1.52 1.52v-1.52h-1.52zm-.97 12.72c-.83 0-1.5.68-1.5 1.51h1.5v-1.51zm28.58 0H174.1v1.51h28.58v-1.51zm1.52 1.51c0-.83-.68-1.51-1.52-1.51v1.51h1.52zm-1.52 1.52c.84 0 1.52-.68 1.52-1.52h-1.52v1.52zm-28.58 0h28.58v-1.52H174.1v1.52zm-1.5-1.52c0 .84.67 1.52 1.5 1.52v-1.52h-1.5zm-.84 12.72c-.83 0-1.5.68-1.5 1.51h1.5v-1.51zm28.58 0h-28.58v1.51h28.58v-1.51zm1.52 1.51c0-.83-.68-1.51-1.52-1.51v1.51h1.52zm-1.52 1.52c.84 0 1.52-.68 1.52-1.52h-1.52v1.52zm-28.58 0h28.58v-1.52h-28.58v1.52zm-1.5-1.52c0 .84.67 1.52 1.5 1.52v-1.52h-1.5zm-1.54 12.85c-.83 0-1.51.68-1.51 1.52h1.51v-1.52zm28.58 0H168.7v1.52h28.58v-1.52zm1.51 1.52c0-.84-.68-1.52-1.51-1.52v1.52h1.51zm-1.51 1.51c.83 0 1.51-.68 1.51-1.51h-1.51v1.51zm-28.58 0h28.58v-1.51H168.7v1.51zm-1.51-1.51c0 .83.68 1.51 1.51 1.51v-1.51h-1.51z" fill="#E3EAF9"/>
    <path fill-rule="evenodd" clip-rule="evenodd" d="M189.22 11.1l-.48-1.23a5.08 5.08 0 00.6-4.36 5.21 5.21 0 00-6.6-3.21 5.08 5.08 0 00-2.95 6.6 5.07 5.07 0 003.53 3.1l.48 1.22-13.38 5.24a2.27 2.27 0 00-1.3 2.93l5.19 13.28-.71.28a5.07 5.07 0 00-4.37-.61c-2.65.85-4.18 4-3.2 6.62a5.08 5.08 0 006.6 2.95 5.07 5.07 0 003.09-3.53l.7-.28 5.19 13.27a2.27 2.27 0 002.93 1.29l31.94-12.5a2.27 2.27 0 001.3-2.93L205.28 7.25a2.27 2.27 0 00-2.93-1.29l-13.14 5.14" fill="#E3EAF9"/>
    <path fill-rule="evenodd" clip-rule="evenodd" d="M234.47 29.98a38.15 38.15 0 01-7.42 7.33c-9.77 7.13-20.22 7.85-28.74-.22a.87.87 0 011.03-1.39l.04.02c5.56 3.22 10.53 4.54 16.8 1.9 8.22-3.54 14.04-12.07 13.43-11.26a3.02 3.02 0 014.24-.59 3.04 3.04 0 01.62 4.21" fill="#F9EBEB"/>
    <path fill-rule="evenodd" clip-rule="evenodd" d="M225.13 31.26c2.03-1.83 4.62-5.43 4.62-5.43s1.23-1.45 3.75-.4c2.01.85 1.6 3.24 1.6 3.24-.04.33-.72 4.26-5.35 7.74 0 0-4.96-4.84-4.62-5.15" fill="#E3EAF9"/>
    <path fill-rule="evenodd" clip-rule="evenodd" d="M199.96 36.1c-.67-.79-.85-3.52-1.22-3.52-.27 0-.32.94-.33 1.47a.16.16 0 01-.09.14.15.15 0 01-.17-.02c-.76-.67-2.9-2.52-3.11-2.35-.23.18.9 1.56 1.3 2.02a.04.04 0 010 .05.04.04 0 01-.05.01c-.6-.3-2.55-1.26-2.6-.85-.04.4 1.66 1.47 2.32 1.88a.04.04 0 01.01.05.04.04 0 01-.04.02c-.74-.22-2.66-.75-2.7-.4-.04.35 1.8 1.14 2.47 1.41a.04.04 0 01.02.05.04.04 0 01-.04.03c-.65-.05-2.34-.16-2.08.1.32.32 4.4 1.65 5.3 1.65.91 0 1-1.75 1-1.75" fill="#F9EBEB"/>
    <g clip-path="url(#clip0)">
        <path fill-rule="evenodd" clip-rule="evenodd" d="M46.35 191.15a2.33 2.33 0 002.32 2.33h175.35a2.33 2.33 0 002.33-2.33V75.8a2.33 2.33 0 00-2.33-2.32H48.67a2.32 2.32 0 00-2.32 2.32v115.35z" fill="#fff"/>
    </g>
    <path fill-rule="evenodd" clip-rule="evenodd" d="M267.77 208.6l-.47-.1c-.4-.08-.9-.07-1.35-.04a4.12 4.12 0 01-2.18-.4l-2.79-1.38a1.41 1.41 0 00-1.92 1.83.45.45 0 00.23.23l3.3 1.47a6.63 6.63 0 012.47 1.88l.93 1.16c2-1.24 1.72-3.5 1.78-4.65" fill="#F5E1DE"/>
    <path fill-rule="evenodd" clip-rule="evenodd" d="M266.56 218.23c.14-1.59-.58-4.22-.92-5.1.85-1.57.88-3.25.36-4.77a4.8 4.8 0 011.31.04c.53.11 1.75.3 2.26.4a.73.73 0 01.59.75s-1.58 11.45-1.94 11.24c-.6-.38-1.77-1.2-1.66-2.56" fill="#ACB7D2"/>
    <path fill-rule="evenodd" clip-rule="evenodd" d="M202.53 232.29l.02-.49c.03-.4-.06-.9-.16-1.34a4.13 4.13 0 01.09-2.21l.95-2.97a1.41 1.41 0 00-2.1-1.63.45.45 0 00-.19.26l-.96 3.49a6.61 6.61 0 01-1.5 2.71l-1.01 1.1c1.52 1.79 3.7 1.18 4.86 1.08" fill="#F5E1DE"/>
    <path fill-rule="evenodd" clip-rule="evenodd" d="M192.83 232.5c1.6-.1 4.09-1.2 4.9-1.66 1.68.61 3.35.4 4.77-.34.1.43.18.9.15 1.3-.03.54-.04 1.78-.06 2.3a.73.73 0 01-.65.69s-11.55.11-11.39-.27c.28-.65.93-1.93 2.28-2.02" fill="#ACB7D2"/>
    <path fill-rule="evenodd" clip-rule="evenodd" d="M214.28 199.14c-.55 2.17-7.33 19.01-10.98 26.86-1.1-.42-1.71-.39-2.83-.74 1.42-7.37 3.98-23.82 4.82-27.37.37-4.94 12.45-25.3 15.24-28.7 3-3.66 7.73-4.73 10.58-2.4 2.84 2.33 3.28 7.54.28 11.2-1.94 2.37-16.74 19.68-17.11 21.15" fill="#C2CBE2"/>
    <path fill-rule="evenodd" clip-rule="evenodd" d="M231.1 166.8c-2.84-2.34-7.57-1.27-10.58 2.4-.24.3-.56.73-.93 1.26 2.71 5.4 3.63 11.37 3.49 17.44 3.72-4.47 7.4-8.8 8.3-9.9 3.01-3.67 2.57-8.88-.28-11.2" fill="#ACB7D2"/>
    <path fill-rule="evenodd" clip-rule="evenodd" d="M228.82 199.28v-.01a3.66 3.66 0 01-.28-.7c-2-5.94-1.43-27.5-.78-31.88.17-1.16.51-2.24.98-3.2l6.38 3.47a24.32 24.32 0 005.65 4.72c.33.2-.1-.65.23-.48a372.83 372.83 0 00-2.57 22.56 2.96 2.96 0 001.8 2.97c5.95 2.5 16.56 7.36 22.47 10.56l-.2 3.35c-8.63-1.81-25.87-6.94-28.49-7.7-2.47-.73-4.39-2.15-5.18-3.66" fill="#C2CBE2"/>
    <path fill-rule="evenodd" clip-rule="evenodd" d="M223.5 145.62a18.7 18.7 0 01-.34 1.92 19.96 19.96 0 01-.7 2.43 19.95 19.95 0 01-2.32 4.51c-1.94 2.81-4.02 5.58-7.08 6.77-1.52.62-3.1 1-4.65 1.22-1.55.25-3.83.3-5.35.26-3.04-.1-7.52-1.25-8.76-2.06-.42-.27-.84-.7-.7-1.22a.99.99 0 011.04-.72h.01c2.8.22 5.6.83 8.27.49 2.65-.38 5.96-1.08 8.05-2.35 2.1-1.24 3.01-3.5 4.06-5.57a13.74 13.74 0 001.22-3.26 15.58 15.58 0 00.41-2.58l.02-.4a1.99 1.99 0 000-.3 3.44 3.44 0 013.48-3.4 3.44 3.44 0 013.4 3.48c-.02.36-.04.53-.07.78z" fill="#F5E1DE"/>
    <path fill-rule="evenodd" clip-rule="evenodd" d="M195.56 159.03c-.74-1.43-4.36-3.82-4.58-3.62-.33.32 1.02 1.44.97 1.4-1.28-.47-3.1-1.01-3.15-.7-.03.3 2.24 1.33 2.23 1.35-.01.01-3.25-.86-3.3-.45-.04.38 2.31 1.08 2.97 1.49a.04.04 0 01.02.05.04.04 0 01-.05.02c-.74-.22-2.86-.37-2.9-.02-.05.35 2.06.6 2.72.87.02 0-.02.19-.03.2 0 .02-2.38-.13-2.12.13.32.33 4.61 1 6.3.84 1.7-.15.92-1.56.92-1.56z" fill="#F5E1DE"/>
    <path fill-rule="evenodd" clip-rule="evenodd" d="M213.06 149.81c.6-1.27 2.88-6.21 3.16-7.42l.02-.06a3.45 3.45 0 014.43-2.47 3.45 3.45 0 012.19 4.36 43.37 43.37 0 01-1.83 4.6 49.62 49.62 0 01-1.51 2.9c-.6-.44-6.46-1.9-6.46-1.9" fill="#E3EAF9"/>
    <path fill-rule="evenodd" clip-rule="evenodd" d="M220.66 173.36c2.85 2.35 14.75 1.88 19.17 1.6a1.89 1.89 0 001.76-2.16c-.47-2.8-2.41-7.63-3.58-12.65a589.04 589.04 0 01-4.14-19.57 3.36 3.36 0 00-3.86-2.67l-10.83 1.8a3.25 3.25 0 00-2.71 3.47l1.26 15.52c.5 6.04-.1 12.14 2.93 14.66" fill="#F9EBEB"/>
    <path fill-rule="evenodd" clip-rule="evenodd" d="M219.08 139.72l1.76-.3a4.12 4.12 0 004.34 1.88 4.12 4.12 0 003.5-3.17l1.61-.27a3.07 3.07 0 013.52 2.45c.83 4.26 2.47 12.47 4.2 19.84 1.19 5.1 3.14 9.78 3.58 12.62a1.92 1.92 0 01-1.79 2.2c-4.44.27-16.3.74-19.14-1.61-3.04-2.52-2.44-8.62-2.93-14.66l-1.27-15.63a3.14 3.14 0 012.62-3.35" fill="#D3DBEF"/>
    <path fill-rule="evenodd" clip-rule="evenodd" d="M224.83 133.8l.2-.06a2.91 2.91 0 002-3.6l-1.19-4.13-3 .86 2 6.93" fill="#ACB7D2"/>
    <path fill-rule="evenodd" clip-rule="evenodd" d="M222.4 139.73l5.23-.39.18-.75-3.06-5.5-3.63 1.54 1.28 5.1" fill="#F9EBEB"/>
    <path fill-rule="evenodd" clip-rule="evenodd" d="M221.12 134.63l3.63-1.54 1.23 2.2c-.57 1.2-1.26 2.52-2.63 2.92-.43.12-.92.08-1.34-.04l-.89-3.53" fill="#E9D1CE"/>
    <path fill-rule="evenodd" clip-rule="evenodd" d="M222.93 136.88a4.79 4.79 0 003.28-5.92l-1.47-5.12-7.88 2.26s1.15 4 2.5 6.54c1 1.9 2.28 2.62 3.57 2.25" fill="#F9EBEB"/>
    <path fill-rule="evenodd" clip-rule="evenodd" d="M224.25 128.1l1.48-.42.19.68-1.48.42-.2-.67" fill="#999"/>
    <path fill-rule="evenodd" clip-rule="evenodd" d="M224.6 130.38c.28 1 1 1.67 1.58 1.5.6-.17.87-1.67.58-2.67-.28-1-1.02-1.12-1.61-.95-.6.17-.84 1.12-.55 2.12" fill="#F9EBEB"/>
    <path fill-rule="evenodd" clip-rule="evenodd" d="M216.92 130.37a4.62 4.62 0 01-.68-1.94s-.69-2.28.09-2.97c.7-.63 2.23-.52 3.18-.58.69-.04 2.66-.76 2.66-.76a3.01 3.01 0 013.72 2.06l.18.62-.96 1.58-.03 1.32-.1.03a1 1 0 01-1.22-.63c-.29-.8-1.05-1.33-1.88-1.1l-2.36.68c-1.44.42-1.96 1.4-1.66 2.48l.34.89-1.28-1.68" fill="#ACB7D2"/>
    <path fill-rule="evenodd" clip-rule="evenodd" d="M220.78 162.28c-8.03 1.98-16.16-3.16-22.55-7.56-.4-.28-.73-.8-.52-1.3a.99.99 0 011.11-.58h.02c9.99 3.49 22.41 7.8 27.43-1.88 2.54-4.76 2.08-10.52 2.1-9.7-.06-4.46 6.62-4.68 6.86-.23.46 8.58-4.34 18.77-14.45 21.25z" fill="#F9EBEB"/>
    <path fill-rule="evenodd" clip-rule="evenodd" d="M227.33 147.85c.8-3.64.91-6.58.91-6.64v.1l.58-2.3s1.11-1.86 4.14-1.14c2.41.57 2.4 3.32 2.4 3.32 0 .38.88 3.13-1.5 9.1 0 0-6.64-1.93-6.53-2.44" fill="#E3EAF9"/>
    <path fill-rule="evenodd" clip-rule="evenodd" d="M198.18 149.47c-.27 0-.31.95-.32 1.48a.16.16 0 01-.1.14.16.16 0 01-.16-.03c-.76-.66-2.9-2.52-3.12-2.34-.22.18.91 1.56 1.3 2.02v.05a.04.04 0 01-.05 0c-.6-.3-2.54-1.25-2.59-.84-.04.39 1.65 1.47 2.32 1.88.01 0 .02.03.01.05a.04.04 0 01-.05.02c-.74-.22-2.65-.75-2.7-.4-.04.34 1.81 1.14 2.48 1.4a.04.04 0 01-.02.08c-.66-.05-2.35-.16-2.09.1.32.32 4.4 1.66 5.3 1.66.92 0 1.01-1.75 1.01-1.75-.67-.78-.84-3.52-1.22-3.52z" fill="#F9EBEB"/>
    <path fill-rule="evenodd" clip-rule="evenodd" d="M89.56 145.44a1.7 1.7 0 001.02-2.17l-3.1-8.48-.55.2a3.45 3.45 0 01-2.8 2.52 3.44 3.44 0 01-3.47-1.6 3.45 3.45 0 011.76-5.04 3.44 3.44 0 013.15.41l.57-.2-3.42-9.38a1.7 1.7 0 00-2.18-1.02l-8.48 3.1.21.58a3.44 3.44 0 012.52 2.79 3.43 3.43 0 01-1.6 3.47 3.45 3.45 0 01-5.04-1.76 3.44 3.44 0 01.41-3.15l-.21-.58-9.38 3.41a1.7 1.7 0 00-1.01 2.18l7.86 21.57a1.7 1.7 0 002.18 1.02l21.56-7.87" fill="#E3EAF9"/>
    <path fill-rule="evenodd" clip-rule="evenodd" d="M14.38 215.29s-3.97 4.57-4.7 5.3c-.6.6-1.45.81-2.27 1.04-.26.08-.6.35-.89.57a.92.92 0 00-.33.76c.1 5.14 4.57 8.75 4.8 8.45.43-.55.1-2.05-.75-3.05a3.9 3.9 0 01-.68-3.67 6.1 6.1 0 011.62-2.63l3.45-3.24-.25-3.53m40.52 6.5l3.16 5.27a7.87 7.87 0 011 5.38 1.72 1.72 0 001.65 2.01c3.4.09 9.96.2 10.15-.1.97-1.58-3.19-2.28-6.45-3.4-2.2-.74-4.91-6.7-6.63-11.4l-2.57 1.64a.69.69 0 00-.3.6" fill="#F5E1DE"/>
    <path fill-rule="evenodd" clip-rule="evenodd" d="M64.34 232.78c1.4 0 2.82-.32 4.13-.58a.85.85 0 01.46.03c1.52.54 2.44 1.28 1.93 2.12-.2.34-7.93.16-10.95.08a1.03 1.03 0 01-.99-1.21l.2-1.13c1.7.43 3.46.69 5.22.69" fill="#ACB7D2"/>
    <path fill-rule="evenodd" clip-rule="evenodd" d="M43.62 162.2c-3.49-.7-7.65 2.17-8.55 6.66-.52 2.58-1.28 12.2-1.17 20.05a8.56 8.56 0 01-3.97 7.47 7.36 7.36 0 00-1.14.85c-1.72 1.57-9.72 11.6-14.74 18.42-.15 1.07 0 2.54.6 3.24a512.26 512.26 0 0019.13-16.2 38.5 38.5 0 003.08-3.08c3.94-2.64 10.34-22.85 11.18-27.01.9-4.5-.93-9.7-4.42-10.4" fill="#D3DBEF"/>
    <path fill-rule="evenodd" clip-rule="evenodd" d="M46.87 133.07c0 3.87-2.43 7-5.42 7-3 0-5.43-3.13-5.43-7 0-3.86 2.43-7 5.42-7 3 0 5.43 3.14 5.43 7" fill="#ACB7D2"/>
    <path fill-rule="evenodd" clip-rule="evenodd" d="M40.14 133.8a7.6 7.6 0 00-7.09-7.36 7.53 7.53 0 00-7.5 4.91 2.66 2.66 0 01-2.54 1.72 6.64 6.64 0 00-1.43.14 6.75 6.75 0 00-5.33 5.86 6.7 6.7 0 002.9 6.26c.83.57 1.3 1.5 1.44 2.5a8.76 8.76 0 0017.41-.47 8.74 8.74 0 00-2.18-6.58 7.54 7.54 0 004.32-6.98m1.3-10.03s3.06 1.93 2.69 4.52c0 0 1.63-1.16 2-5.14.25-2.76-4.69.62-4.69.62" fill="#ACB7D2"/>
    <path fill-rule="evenodd" clip-rule="evenodd" d="M44.04 152.98c1.15-3.69 3.46-11.49 3.26-14.04a3.03 3.03 0 00-2.94-2.88h-9.99c-1.65 0-3 1.4-3.05 3.16-.09 3.08 1.25 10.09 2 13.76h10.72" fill="#F9EBEB"/>
    <path fill-rule="evenodd" clip-rule="evenodd" d="M48.28 143.23c.15 1.2.4 2.4.78 3.4.18.49.4 1.91.59 2.24.2.32.35.42.32.46-.04.03-.06.13.2.03.1-.02.26-.16.42-.26.17-.15.34-.3.52-.49.7-.78 1.38-2.87 1.97-4.05a43.48 43.48 0 001.64-3.7c1-2.58 1.87-4.27 2.68-7 .15-.5.64-.78 1.09-.61.4.14.64.58.59 1.03a65.3 65.3 0 01-1.45 7.67c-.15.73-.36 1.45-.54 2.17-.22.72-.42 1.44-.68 2.16-.5 1.45-1.1 3.9-2.04 5.34a12.43 12.43 0 01-.83 1.08c-.35.35-.67.7-1.15 1.01l-.34.23-.4.2c-.27.12-.53.25-.86.3a4.14 4.14 0 01-1.95.01 5.74 5.74 0 01-2.9-1.85c-.67-.76-1.17-2.55-1.57-3.34a23.8 23.8 0 01-2.28-9.7v-.02c-.08-1.84 1.21-3.4 2.87-3.48 1.67-.09 3.08 1.34 3.16 3.18a3.67 3.67 0 010 .32 21.26 21.26 0 00.16 3.67z" fill="#F5E1DE"/>
    <path fill-rule="evenodd" clip-rule="evenodd" d="M58.12 220.8a.55.55 0 00.1-.54 587.78 587.78 0 00-6.99-18.44 10.2 10.2 0 00-.27-.59c-1.3-9.3-7.26-28.26-8.2-31.62-1.21-4.42-5.44-8.46-8.87-7.51-3.43.95-5.94 5.65-5.71 10 .15 2.86 7.5 15.93 13.84 25.08a16.21 16.21 0 012.57 6.45c.28 1.6.73 3.19 1.24 4.35.74 1.73 5.13 8.35 9.05 13.96a.55.55 0 00.5.23 4.05 4.05 0 002.74-1.37" fill="#E3EAF9"/>
    <path fill-rule="evenodd" clip-rule="evenodd" d="M32.71 152.83c-.53-3.77-1.47-10.87-1.38-13.88a2.97 2.97 0 012.97-2.89h1.58a3.98 3.98 0 003.84 2.47 3.98 3.98 0 003.85-2.47h1.48c-1.61 3.44 2.9 5.35 1.73 10.64a88.99 88.99 0 00-1.27 5.13 10.04 10.04 0 00.55 6c1.36 3.26 2.43 8.5 2.11 10.57-11.17 3.17-18.9-2.44-18.9-2.44l2.96-8.31a10.12 10.12 0 00.48-4.82z" fill="#C2CBE2"/>
    <path fill-rule="evenodd" clip-rule="evenodd" d="M45.51 151.83l.37-1.61a29.74 29.74 0 01-4.73-1.61c-3.25-1.43-7.4-3.74-9.73-6.94.06.92.15 1.93.26 2.98 1.15 2.68 2.38 5.26 4.64 7.27 2.7 2.41 5.99 4 9.43 5.05a10.03 10.03 0 01-.24-5.14" fill="#ACB7D2"/>
    <path fill-rule="evenodd" clip-rule="evenodd" d="M41.45 136.8l-4.82-.51 1.52-5.28 3.12.38.17 5.4" fill="#F9EBEB"/>
    <path fill-rule="evenodd" clip-rule="evenodd" d="M41.27 131.4l-3.12-.4-.47 1.65c.7.8 1.59 2.5 2.72 2.5a1.8 1.8 0 00.99-.3l-.12-3.46" fill="#E9D1CE"/>
    <path fill-rule="evenodd" clip-rule="evenodd" d="M41.37 133.94c-1.05 0-2.2-.53-3.77-1.9a4.79 4.79 0 01-1.58-3.1v-5.17h7.93s.6 2.74.02 5.46c-.43 2.04-1.76 4.72-2.6 4.72" fill="#F9EBEB"/>
    <path fill-rule="evenodd" clip-rule="evenodd" d="M35.04 124.4a2.91 2.91 0 012.92-2.92h2.67c.77 0 1.51-.2 2.16-.57a2.12 2.12 0 012.79.52c.7.95 1 2.21-.77 3.39-.88.58-2.17-.07-3.02.21h-2.52a1.5 1.5 0 00-1.47 1.48.96.96 0 01-.96.94h-.1l-.38-1.21-1.32 1.77v-3.61" fill="#ACB7D2"/>
    <path fill-rule="evenodd" clip-rule="evenodd" d="M37.36 127.95c0 1.01-.48 1.83-1.07 1.83-.6 0-1.25-1.32-1.25-2.33 0-1 .66-1.32 1.25-1.32.6 0 1.07.82 1.07 1.82" fill="#F9EBEB"/>
    <path fill-rule="evenodd" clip-rule="evenodd" d="M59.76 131.63s.06 2.8-.67 3.1c-.72.3-1.26.35-1.67-.86-.42-1.22-.5-3.12-.35-4.27a7.8 7.8 0 011.3-3.07c.77-.42.31 1.63.13 2.64-.18 1-.3 2.16.14 2.12.44-.03.66-1.99 1.15-2.23.5-.23-.03 2.57-.03 2.57" fill="#F5E1DE"/>
    <path fill-rule="evenodd" clip-rule="evenodd" d="M72.94 148.74s-2.76-.45-3.17.35c-.42.8-.55 1.4.58 2.06 1.14.65 3 1 4.17.98a7.27 7.27 0 003.25-1.09c.53-.83-1.57-.58-2.6-.51-1.02.07-2.18.05-2.07-.46.1-.5 2.07-.49 2.39-1.02.3-.54-2.55-.31-2.55-.31" fill="#F9EBEB"/>
    <path fill-rule="evenodd" clip-rule="evenodd" d="M43.36 123.68c-.27 1.18.13 1.82-3.73 3.66s-5.08 1.06-6.29 3.04c0 0 .53-3.28 2.66-4.4 2.13-1.13 5.83-1.87 7.01-4.48a5 5 0 00.35 2.18" fill="#ACB7D2"/>
    <path fill-rule="evenodd" clip-rule="evenodd" d="M36.67 138.97l.02.05.04.13.14.36c.1.25.22.52.37.78.17.25.3.53.5.78s.41.5.6.77c.5.46.9 1 1.5 1.41l.84.67.95.57c2.54 1.56 5.64 2.57 8.84 3.36.8.16 1.63.3 2.45.44.83.15 1.65.33 2.5.38l2.53.25 1.27.15 1.28.05 2.58.12c.86.04 1.72.08 2.59.06 1.73 0 3.47-.03 5.22 0h.05a.96.96 0 01.18 1.9c-1.73.36-3.48.67-5.23 1.01-.87.2-1.76.27-2.65.38l-2.67.3-1.34.15-1.36.06-2.71.08c-.9.05-1.82-.02-2.74-.06-.92-.05-1.84-.08-2.76-.15-3.68-.42-7.45-1.21-11.06-3.03l-1.34-.72c-.43-.28-.85-.58-1.28-.88-.87-.55-1.64-1.33-2.44-2.05-.37-.41-.72-.84-1.07-1.26-.35-.43-.64-.93-.95-1.4a15.64 15.64 0 01-.8-1.57l-.33-.88-.14-.5-.07-.26-.08-.4a3.33 3.33 0 116.59-.97.35.35 0 00-.02-.08z" fill="#F9EBEB"/>
    <path fill-rule="evenodd" clip-rule="evenodd" d="M42.62 123.9s.15 3.97 3.61 5.88c0 0-1.53-3-1.42-4.96.1-1.97-2.42-2.27-2.19-.92M4.54 223.84a.7.7 0 01.29-.87l1.4-.86a.34.34 0 01.5.26c.33 2.84 1.62 5.42 4.03 6.64.63.85.72 2.28.38 2.71-.08.1-1.21-.27-2.16-1.36-4.2-4.82-4.44-6.52-4.44-6.52" fill="#ACB7D2"/>
    <defs>
        <clipPath id="clip0">
            <path fill="#fff" transform="translate(46.35 73.48)" d="M0 0h180v120H0z"/>
        </clipPath>
    </defs>
</svg>
