<svg xmlns="http://www.w3.org/2000/svg" width="160" height="29">
  <defs>
    <linearGradient id="a" x1="25.77%" x2="69.47%" y1="5.69%" y2="78.2%">
      <stop offset="0%" stop-color="#26A5FF"/>
      <stop offset="100%" stop-color="#2C6DFF"/>
    </linearGradient>
  </defs>
  <g fill="none" fill-rule="evenodd">
    <g>
      <ellipse cx="14.01" cy="14.23" fill="url(#a)" rx="14.01" ry="14.23"/>
      <path fill="#FFF" fill-rule="nonzero" d="M18.96 20.46h-4.95a6.18 6.18 0 0 1-6.13-6.23 6.18 6.18 0 0 1 6.13-6.22 6.12 6.12 0 0 1 5.54 3.56h-2.04a4.35 4.35 0 0 0-3.5-1.78c-2.42 0-4.38 1.99-4.38 4.44a4.41 4.41 0 0 0 4.38 4.45h8.58a9.62 9.62 0 0 1-8.58 5.34 9.71 9.71 0 0 1-9.63-9.79c0-5.4 4.31-9.78 9.63-9.78a9.71 9.71 0 0 1 9.6 10.67H14v-.54c0-.68.56-1.24 1.24-1.24h6.6A7.93 7.93 0 0 0 14 6.23a7.94 7.94 0 0 0-7.88 8c0 4.43 3.53 8.01 7.88 8.01 1.88 0 3.6-.67 4.95-1.78z"/>
    </g>
    <g fill="#1A78FC">
      <path d="M45.75 15.12H34.6v-2h11.16v-.67a2.43 2.43 0 0 0-2.4-2.44h-8.76c-.73 0-1.32-.6-1.32-1.34v-.66h10.07c2.42 0 4.38 1.99 4.38 4.44v3.56a4.41 4.41 0 0 1-4.38 4.45H33.27v-.67c0-.73.6-1.33 1.32-1.33h8.75c1.33 0 2.41-1.1 2.41-2.45v-.89zM51.44 13.12h8.98c1.7 0 3.06 1.4 3.06 3.12v1.1a3.09 3.09 0 0 1-3.06 3.12h-6.57c-2.42 0-4.38-1.99-4.38-4.45v-3.56a4.41 4.41 0 0 1 4.38-4.44H63.48v.66c0 .74-.58 1.34-1.3 1.34h-8.33c-1.33 0-2.41 1.1-2.41 2.44v.67zm0 2v.9a2.43 2.43 0 0 0 2.42 2.44H60.42c.6 0 1.1-.5 1.1-1.1v-1.12a1.1 1.1 0 0 0-1.1-1.12h-8.97zM82.97 15.8a2.65 2.65 0 0 0 2.63 2.66h8.53c.73 0 1.32.6 1.32 1.34v.66H85.38c-2.42 0-4.38-1.99-4.38-4.45v-3.56a4.41 4.41 0 0 1 4.38-4.44h7c1.7 0 3.07 1.4 3.07 3.11v.89a3.09 3.09 0 0 1-3.07 3.11h-9.41v.67zm9.41-2.68c.6 0 1.1-.5 1.1-1.11v-.89a1.1 1.1 0 0 0-1.1-1.11H85.6a2.65 2.65 0 0 0-2.63 2.67v.44h9.41zM119.96 16.9v.9c0 .49.4.88.88.88h5.91c.6 0 1.1.5 1.1 1.11v.67h-7.01a2.65 2.65 0 0 1-2.63-2.67v-3.55a2.65 2.65 0 0 1 2.63-2.67h4.82c1.2 0 2.19 1 2.19 2.22v.89a2.2 2.2 0 0 1-2.2 2.22h-5.68zm0-1.77h5.7c.24 0 .43-.2.43-.45v-.89c0-.25-.2-.45-.43-.45h-4.82c-.48 0-.88.4-.88.9v.9zM159.37 14.23v6.23h-.66c-.6 0-1.1-.5-1.1-1.11v-5.12c0-.49-.38-.89-.87-.89h-3.5c-.48 0-.88.4-.88.9v5.1a1.1 1.1 0 0 1-1.1 1.12h-.65v-6.23a2.65 2.65 0 0 1 2.63-2.66h3.5c1.45 0 2.63 1.19 2.63 2.66zM147.99 19.57h-4.82c-1.21 0-2.19-1-2.19-2.22v-3.56a2.2 2.2 0 0 1 2.19-2.22h3.94c1.45 0 2.63 1.19 2.63 2.66v6.23a2.65 2.65 0 0 1-2.63 2.67h-6.13v-.67c0-.61.49-1.1 1.1-1.1h5.03c.48 0 .88-.4.88-.9v-.89zm0-1.78v-3.56c0-.49-.4-.89-.88-.89h-3.95c-.23 0-.43.2-.43.45v3.56c0 .24.2.44.44.44h4.82zM138.35 14.23h.66c.6 0 1.1.5 1.1 1.12v5.11h-.66c-.6 0-1.1-.5-1.1-1.11v-5.12zm0-2.66h.66c.6 0 1.1.5 1.1 1.1v.67h-1.76v-1.77zM135.29 16.9h-4.38c-1.2 0-2.19-1-2.19-2.22v-.9a2.2 2.2 0 0 1 2.19-2.21h6.57v.66a1.1 1.1 0 0 1-1.1 1.11h-5.47c-.24 0-.44.2-.44.45v.89c0 .24.2.44.44.44h4.38c1.2 0 2.19 1 2.19 2.23v.89a2.2 2.2 0 0 1-2.2 2.22h-6.56v-.67c0-.61.5-1.1 1.1-1.1h5.47c.24 0 .44-.2.44-.45v-.9c0-.24-.2-.44-.44-.44zM69.61 8h5.26c2.42 0 4.38 2 4.38 4.45v3.56a4.41 4.41 0 0 1-4.38 4.45H69.6c-2.41 0-4.37-1.99-4.37-4.45v-3.56a4.41 4.41 0 0 1 4.37-4.44zm0 2.01c-1.33 0-2.4 1.1-2.4 2.45v3.56a2.43 2.43 0 0 0 2.4 2.44h5.26c1.33 0 2.41-1.1 2.41-2.44v-3.56a2.43 2.43 0 0 0-2.4-2.45H69.6zM104.2 8h8.76c2.42 0 4.38 2 4.38 4.45v3.56a4.41 4.41 0 0 1-4.38 4.45h-8.76V8.01zm1.97 2v8.46h6.8c1.33 0 2.4-1.1 2.4-2.45v-3.56a2.43 2.43 0 0 0-2.4-2.45h-6.8zM97.2 8v.96c0 .46.37.83.82.83h.93V8h.92c.46 0 .83-.37.83-.83v-.95h-1.75v-.96a.83.83 0 0 0-.83-.82h-.92v1.78h-.93a.83.83 0 0 0-.82.82v.96h1.75z"/>
    </g>
  </g>
</svg>