<svg xmlns="http://www.w3.org/2000/svg" width="29" height="29">
  <defs>
    <linearGradient id="a" x1="25.77%" x2="69.47%" y1="5.69%" y2="78.2%">
      <stop offset="0%" stop-color="#26A5FF"/>
      <stop offset="100%" stop-color="#2C6DFF"/>
    </linearGradient>
  </defs>
  <g fill="none" fill-rule="evenodd">
    <g>
      <ellipse cx="14.01" cy="14.23" fill="url(#a)" rx="14.01" ry="14.23"/>
      <path fill="#FFF" fill-rule="nonzero" d="M18.96 20.46h-4.95a6.18 6.18 0 0 1-6.13-6.23 6.18 6.18 0 0 1 6.13-6.22 6.12 6.12 0 0 1 5.54 3.56h-2.04a4.35 4.35 0 0 0-3.5-1.78c-2.42 0-4.38 1.99-4.38 4.44a4.41 4.41 0 0 0 4.38 4.45h8.58a9.62 9.62 0 0 1-8.58 5.34 9.71 9.71 0 0 1-9.63-9.79c0-5.4 4.31-9.78 9.63-9.78a9.71 9.71 0 0 1 9.6 10.67H14v-.54c0-.68.56-1.24 1.24-1.24h6.6A7.93 7.93 0 0 0 14 6.23a7.94 7.94 0 0 0-7.88 8c0 4.43 3.53 8.01 7.88 8.01 1.88 0 3.6-.67 4.95-1.78z"/>
    </g>
  
  </g>
</svg>